<?xml version="1.0" encoding="UTF-8" standalone="no"?>
<!DOCTYPE svg PUBLIC "-//W3C//DTD SVG 1.1//EN" "http://www.w3.org/Graphics/SVG/1.1/DTD/svg11.dtd">
<svg width="100%" height="100%" viewBox="0 0 2722 756" version="1.1" xmlns="http://www.w3.org/2000/svg" xmlns:xlink="http://www.w3.org/1999/xlink" xml:space="preserve" xmlns:serif="http://www.serif.com/" style="fill-rule:evenodd;clip-rule:evenodd;stroke-linejoin:round;stroke-miterlimit:2;">
    <g transform="matrix(1,0,0,1,-45045,0)">
        <g id="pro2-horizontal-onBlue" serif:id="pro2 horizontal onBlue" transform="matrix(5.04022,0,0,1.50385,-177693,1444.01)">
            <rect x="44192.1" y="-960.214" width="539.916" height="502.711" style="fill:none;"/>
            <clipPath id="_clip1">
                <rect x="44192.1" y="-960.214" width="539.916" height="502.711"/>
            </clipPath>
            <g clip-path="url(#_clip1)">
                <g transform="matrix(0.999999,0,0,1,0.0212521,0.00260809)">
                    <clipPath id="_clip2">
                        <rect x="44192.1" y="-960.214" width="539.916" height="502.711"/>
                    </clipPath>
                    <g clip-path="url(#_clip2)">
                        <g transform="matrix(1.33975,0,0,1.5902,38578.8,-9806.74)">
                            <rect x="4183.94" y="5493.13" width="451.614" height="451.614" style="fill:rgb(30,45,65);"/>
                        </g>
                        <g transform="matrix(0.0554271,0,0,0.185767,44095.7,-1165.31)">
                            <g transform="matrix(28.3691,0,0,28.3691,62.5633,-3434.81)">
                                <g>
                                    <g transform="matrix(1,0,0,1,188.213,235.559)">
                                        <path d="M20.15,-14.75L20.15,0L27.45,0L27.45,-16.5C27.45,-23.25 23.55,-26.5 18.5,-26.5C13.15,-26.5 10.65,-23 10.2,-20.55L9.9,-20.55L9.9,-26L2.6,-26L2.6,0L9.9,0L9.9,-14.75C9.9,-18.7 12.3,-20.45 15.35,-20.45C18.4,-20.45 20.15,-18.7 20.15,-14.75Z" style="fill:rgb(83,199,227);fill-rule:nonzero;"/>
                                    </g>
                                    <g transform="matrix(1,0,0,1,215.763,235.559)">
                                        <path d="M14.45,0.5C20.5,0.5 25.1,-2.55 26.4,-8.5L19.95,-8.5C19.35,-6.4 17.9,-5.05 14.55,-5.05C10.95,-5.05 8.7,-6.8 8.3,-11.15L26.6,-11.15C26.7,-11.7 26.75,-12.2 26.75,-13.15C26.75,-23 21.1,-26.5 14.4,-26.5C7.5,-26.5 1.35,-22.75 1.35,-13.05C1.35,-3.15 7.85,0.5 14.45,0.5ZM8.3,-15.45C8.8,-19.05 10.8,-20.95 14.2,-20.95C18.2,-20.95 19.75,-18.45 19.85,-15.45L8.3,-15.45Z" style="fill:rgb(83,199,227);fill-rule:nonzero;"/>
                                        <path d="M39.5,0.35C40.95,0.35 42.35,0.15 43.5,-0.15L43.5,-5.6C42.45,-5.5 42,-5.5 41.45,-5.5C38.75,-5.5 38.15,-6.85 38.15,-8.85L38.15,-20.35L43.3,-20.35L43.3,-26L38.15,-26L38.15,-32.7L30.85,-32.7L30.85,-26L26.45,-26L26.45,-20.35L30.85,-20.35L30.85,-7.8C30.85,-2 34.3,0.35 39.5,0.35Z" style="fill:rgb(83,199,227);fill-rule:nonzero;"/>
                                        <path d="M49.9,0L58.1,0L62.8,-16.3L67.55,0L75.7,0L82.65,-26L75.75,-26L71.3,-7.05L71.1,-7.05L65.95,-26L59.65,-26L54.5,-7.05L54.3,-7.05L49.85,-26L42.95,-26L49.9,0Z" style="fill:rgb(83,199,227);fill-rule:nonzero;"/>
                                        <path d="M95.4,0.5C101.95,0.5 108.45,-3.55 108.45,-13C108.45,-22.45 101.95,-26.5 95.4,-26.5C88.85,-26.5 82.35,-22.45 82.35,-13C82.35,-3.55 88.85,0.5 95.4,0.5ZM89.2,-13C89.2,-18.15 91.9,-20.45 95.4,-20.45C98.9,-20.45 101.6,-18.15 101.6,-13C101.6,-7.85 98.9,-5.55 95.4,-5.55C91.9,-5.55 89.2,-7.85 89.2,-13Z" style="fill:rgb(83,199,227);fill-rule:nonzero;"/>
                                        <path d="M109.9,0L117.2,0L117.2,-11.5C117.2,-17.8 120.95,-20.05 124.85,-20.05C125.5,-20.05 126.1,-20 126.9,-19.9L126.9,-26.05C126.15,-26.25 125.5,-26.3 124.9,-26.3C120.75,-26.3 118.3,-23.5 117.4,-19.7L117.2,-19.7L117.2,-26L109.9,-26L109.9,0Z" style="fill:rgb(83,199,227);fill-rule:nonzero;"/>
                                        <path d="M127.85,0L135.15,0L135.15,-7.5L137.75,-10.25L146.05,0L154.1,0L142.25,-14.95L152.75,-26L144.7,-26L135.15,-15.3L135.15,-35L127.85,-35L127.85,0Z" style="fill:rgb(83,199,227);fill-rule:nonzero;"/>
                                    </g>
                                </g>
                                <g transform="matrix(1,0,0,1,367.713,235.559)">
                                    <path d="M11.75,-1.8L18.45,-1.8L18.45,-10.95L27.65,-10.95L27.65,-17.25L18.45,-17.25L18.45,-26.35L11.75,-26.35L11.75,-17.25L2.6,-17.25L2.6,-10.95L11.75,-10.95L11.75,-1.8Z" style="fill:rgb(67,78,131);fill-rule:nonzero;"/>
                                </g>
                            </g>
                            <g transform="matrix(23.3871,0,0,19.2425,-109073,-15184.7)">
                                <g transform="matrix(1.95328,0,0,2.38015,4374.07,397.594)">
                                    <g>
                                        <g transform="matrix(1,0,0,1,188.213,235.559)">
                                            <path d="M2.6,9.5L9.9,9.5L9.9,-3.75C10.85,-1.5 13.7,0.5 17.55,0.5C23,0.5 28.95,-3.45 28.95,-13C28.95,-22.55 23,-26.5 17.55,-26.5C13.7,-26.5 10.85,-24.5 9.9,-22.25L9.9,-26L2.6,-26L2.6,9.5ZM9.6,-13C9.6,-18.1 12.6,-20.45 15.8,-20.45C19.05,-20.45 22.05,-18.1 22.05,-13C22.05,-7.9 19.05,-5.55 15.8,-5.55C12.6,-5.55 9.6,-7.9 9.6,-13Z" style="fill:rgb(255,211,2);fill-rule:nonzero;"/>
                                        </g>
                                        <g transform="matrix(1,0,0,1,216.013,235.559)">
                                            <path d="M2.6,0L9.9,0L9.9,-11.5C9.9,-17.8 13.65,-20.05 17.55,-20.05C18.2,-20.05 18.8,-20 19.6,-19.9L19.6,-26.05C18.85,-26.25 18.2,-26.3 17.6,-26.3C13.45,-26.3 11,-23.5 10.1,-19.7L9.9,-19.7L9.9,-26L2.6,-26L2.6,0Z" style="fill:rgb(255,211,2);fill-rule:nonzero;"/>
                                            <path d="M32.35,0.5C38.9,0.5 45.4,-3.55 45.4,-13C45.4,-22.45 38.9,-26.5 32.35,-26.5C25.8,-26.5 19.3,-22.45 19.3,-13C19.3,-3.55 25.8,0.5 32.35,0.5ZM26.15,-13C26.15,-18.15 28.85,-20.45 32.35,-20.45C35.85,-20.45 38.55,-18.15 38.55,-13C38.55,-7.85 35.85,-5.55 32.35,-5.55C28.85,-5.55 26.15,-7.85 26.15,-13Z" style="fill:rgb(255,211,2);fill-rule:nonzero;"/>
                                        </g>
                                    </g>
                                </g>
                                <g transform="matrix(0.887942,0,0,1.082,4868.88,891.115)">
                                    <path d="M2,-1.65L2,0L26.7,0L26.7,-6.05L10.35,-6.05L10.35,-6.2C10.35,-8.45 12.25,-10.3 17.25,-13.2C21.45,-15.55 26.8,-18.35 26.8,-25.2C26.8,-31.25 22.6,-35.45 14.7,-35.45C6.05,-35.45 2.5,-30.35 2.5,-24.15L2.5,-23.15L9.55,-23.15L9.55,-23.85C9.55,-27.8 11.95,-29.25 14.6,-29.25C16.9,-29.25 19.6,-28.3 19.5,-24.75C19.45,-20.85 15.9,-19.4 11.2,-16.7C3.8,-12.35 2,-8 2,-1.65Z" style="fill:rgb(52,207,150);fill-rule:nonzero;"/>
                                </g>
                            </g>
                        </g>
                    </g>
                </g>
            </g>
        </g>
    </g>
</svg>
